<?xml version="1.0" encoding="utf-8"?>
<!-- Generator: Adobe Illustrator 26.5.0, SVG Export Plug-In . SVG Version: 6.00 Build 0)  -->
<svg version="1.1" id="Layer_1" xmlns="http://www.w3.org/2000/svg" xmlns:xlink="http://www.w3.org/1999/xlink" x="0px" y="0px"
	 viewBox="0 0 32 32" style="enable-background:new 0 0 32 32;" xml:space="preserve">
<style type="text/css">
	.st0{fill:#FFFFFF;}
</style>
<path class="st0" d="M5.17,6c-1.38,0-2.5,1.12-2.5,2.5c0,0.79,0.37,1.53,1,2L15,19c0.59,0.44,1.41,0.44,2,0l11.33-8.5
	c0.63-0.47,1-1.21,1-2c0-1.38-1.12-2.5-2.5-2.5C26.83,6,5.17,6,5.17,6z M2.67,11.83v10.83C2.67,24.51,4.16,26,6,26h20
	c1.84,0,3.33-1.49,3.33-3.33V11.83L18,20.33c-1.19,0.89-2.81,0.89-4,0L2.67,11.83z"/>
</svg>
