<?xml version="1.0" encoding="utf-8"?>
<!-- Generator: Adobe Illustrator 26.5.0, SVG Export Plug-In . SVG Version: 6.00 Build 0)  -->
<svg version="1.1" id="Layer_1" xmlns="http://www.w3.org/2000/svg" xmlns:xlink="http://www.w3.org/1999/xlink" x="0px" y="0px"
	 viewBox="0 0 24 24" style="enable-background:new 0 0 24 24;" xml:space="preserve">
<style type="text/css">
	.st0{fill:#FFFFFF;}
</style>
<path class="st0" d="M20.57,2H3.42C2.64,2,2,2.65,2,3.44v17.12C2,21.35,2.64,22,3.42,22h17.15c0.79,0,1.43-0.65,1.43-1.44V3.44
	C22,2.65,21.36,2,20.57,2z M8.04,19.14H5.08V9.6h2.97L8.04,19.14L8.04,19.14z M6.56,8.29c-0.95,0-1.72-0.77-1.72-1.72
	s0.77-1.72,1.72-1.72c0.95,0,1.72,0.77,1.72,1.72C8.28,7.53,7.51,8.29,6.56,8.29z M19.16,19.14h-2.96V14.5
	c0-1.11-0.02-2.53-1.54-2.53c-1.54,0-1.78,1.21-1.78,2.45v4.72H9.91V9.6h2.84v1.3h0.04c0.4-0.75,1.37-1.54,2.81-1.54
	c3,0,3.56,1.98,3.56,4.55V19.14z"/>
</svg>
